<svg width="50" height="50" viewBox="0 0 50 50" fill="none" xmlns="http://www.w3.org/2000/svg">
<rect width="50" height="50" rx="25" fill="#FF474A"/>
<g clip-path="url(#clip0_33_76)">
<path d="M19.6666 15.3345C19.6663 15.9533 19.4202 16.5467 18.9824 16.984C18.5446 17.4214 17.951 17.6669 17.3321 17.6666C16.7133 17.6663 16.1199 17.4202 15.6826 16.9824C15.2452 16.5446 14.9997 15.951 15 15.3321C15.0003 14.7133 15.2464 14.1199 15.6842 13.6826C16.122 13.2452 16.7156 12.9997 17.3345 13C17.9533 13.0003 18.5467 13.2464 18.984 13.6842C19.4214 14.122 19.6669 14.7156 19.6666 15.3345ZM19.7366 19.3944H15.07V34.001H19.7366V19.3944ZM27.1099 19.3944H22.4666V34.001H27.0632V26.3361C27.0632 22.0661 32.6282 21.6694 32.6282 26.3361V34.001H37.2365V24.7494C37.2365 17.5511 28.9999 17.8195 27.0632 21.3544L27.1099 19.3944Z" fill="#F8F8F8"/>
</g>
<defs>
<clipPath id="clip0_33_76">
<rect width="24" height="24" fill="white" transform="translate(13 13)"/>
</clipPath>
</defs>
</svg>
