<svg width="50" height="40" viewBox="0 0 50 40" fill="none" xmlns="http://www.w3.org/2000/svg">
<path d="M3.25 7.91683C3.25 6.63495 3.75922 5.40557 4.66565 4.49915C5.57208 3.59272 6.80145 3.0835 8.08333 3.0835H41.9167C43.1985 3.0835 44.4279 3.59272 45.3343 4.49915C46.2408 5.40557 46.75 6.63495 46.75 7.91683V32.0835C46.75 33.3654 46.2408 34.5948 45.3343 35.5012C44.4279 36.4076 43.1985 36.9168 41.9167 36.9168H8.08333C6.80145 36.9168 5.57208 36.4076 4.66565 35.5012C3.75922 34.5948 3.25 33.3654 3.25 32.0835V7.91683Z" stroke="white" stroke-width="4.83333" stroke-linecap="round" stroke-linejoin="round"/>
<path d="M3.25 7.9165L25 22.4165L46.75 7.9165" stroke="white" stroke-width="4.83333" stroke-linecap="round" stroke-linejoin="round"/>
</svg>
