<svg width="39" height="61" viewBox="0 0 39 61" fill="none" xmlns="http://www.w3.org/2000/svg">
<path d="M30.9375 3.8125C31.9486 3.8125 32.9184 4.21417 33.6333 4.92916C34.3483 5.64414 34.75 6.61386 34.75 7.625V53.375C34.75 54.3861 34.3483 55.3559 33.6333 56.0708C32.9184 56.7858 31.9486 57.1875 30.9375 57.1875H8.0625C7.05136 57.1875 6.08164 56.7858 5.36666 56.0708C4.65167 55.3559 4.25 54.3861 4.25 53.375V7.625C4.25 6.61386 4.65167 5.64414 5.36666 4.92916C6.08164 4.21417 7.05136 3.8125 8.0625 3.8125H30.9375ZM8.0625 0C6.04022 0 4.10078 0.803346 2.67081 2.23331C1.24085 3.66328 0.4375 5.60272 0.4375 7.625V53.375C0.4375 55.3973 1.24085 57.3367 2.67081 58.7667C4.10078 60.1967 6.04022 61 8.0625 61H30.9375C32.9598 61 34.8992 60.1967 36.3292 58.7667C37.7592 57.3367 38.5625 55.3973 38.5625 53.375V7.625C38.5625 5.60272 37.7592 3.66328 36.3292 2.23331C34.8992 0.803346 32.9598 0 30.9375 0L8.0625 0Z" fill="white"/>
</svg>
